<svg id="Layer_1" enable-background="new 0 0 55 55" height="512" viewBox="0 0 55 55" width="512" xmlns="http://www.w3.org/2000/svg"><g id="Website_Error"><g><g><path d="m51.5 13.9274092v28.9531908c0 2.2097168-1.7954407 4.0052338-4.0052376 4.0052338h-39.9895253c-2.2097964 0-4.0052366-1.795517-4.0052366-4.0052338v-28.6770039c17.8206019.5524864 35.6443286.315383 47.9999995-.2761869z" fill="#e2d2f6"/></g><g><path d="m51.5 14.0044832v2.6323748c-6.9269485.486227-17.5440331.8924942-28.5765381.865099-6.478651-.018425-12.9448099-.1657162-19.4234619-.4601879v-3.0372858c0-3.2580557 1.79544-5.8903179 4.0052366-5.8903179h39.9895248c2.2097979-.0000001 4.0052386 2.6322621 4.0052386 5.8903178z" fill="#5bd9c3"/></g><g><path d="m48.3558884 12.1182337c-.1757088-.6041861-.8938904-1.344717-1.5612907-1.3612852-1.3253632-.0329008-1.5231743 2.5756235.0565338 3.0927477 1.1389884.3728523 1.8104705-.6802359 1.5047569-1.7314625z" fill="#ff5f6e"/></g><g><path d="m43.7095337 12.1182337c-.1757126-.6041861-.8938942-1.344717-1.5612907-1.3612852-1.325367-.0329008-1.5231743 2.5756235.0565338 3.0927477 1.1389885.3728523 1.8104705-.6802359 1.5047569-1.7314625z" fill="#ffc372"/></g><g><path d="m39.0631752 12.1182337c-.1757088-.6041861-.8938942-1.344717-1.5612907-1.3612852-1.3253632-.0329008-1.5231743 2.5756235.0565338 3.0927477 1.1389885.3728523 1.8104706-.6802359 1.5047569-1.7314625z" fill="#3a97d4"/></g><g><path d="m9.4307222 44.2279701c-2.1740117 0-3.3218346-1.1354942-3.3417969-3.2880859-.0081534-.9865723.1808052-1.925827.0253906-2.8427734-.0234375-.1357422.0683594-.265625.2041016-.2880859.1347656-.0283203.265625.0683594.2880859.2041016.2849751 1.6687698-.6147485 4.250721.9697266 5.2529297.7705078.4863281 2.0253906.6064453 3.0537109.2900391.1328125-.0371094.2724609.0341797.3125.1660156s-.0341797.2714844-.1660156.3125c-.4257812.1298827-.8876953.1933592-1.3457031.1933592z"/></g><g><path d="m48.7871666 25.7152748c-.1347656 0-.2460938-.1074219-.25-.2431641l-.1806641-6.6640625c-.0039063-.1376953.1054688-.2529297.2431641-.2568359.1230469.0234375.2529297.1054688.2568359.2431641l.1806641 6.6640625c.0039063.1376953-.1054688.2529297-.2431641.2568359-.0019531 0-.0048828 0-.0068359 0z"/></g><g><path d="m46.5234947 22.1264076c.4318504-2.0880852-.0846634-2.7595444.4003906-2.7939453.1357422-.0322266.2568359.09375.2666016.2314453.0634766.890625.0039063 1.7871094-.1767578 2.6640625-.0660858.3198567-.5561523.225668-.4902344-.1015625z"/></g><g><g><path d="m21.1566544 28.2832699c-.0092888 4.5242939-.0126057 5.3895092 0 7.3004932.0113583.5810661-.4909859 1.0565071-1.1304874 1.0670815 0 0 0 0-.0113602 0-.616642 0-1.1304874-.4648628-1.1418476-1.0459938-.0114288-.5704918-.0114288-1.1304703-.0114288-1.6903839-2.7084293 0-3.9221344-1.2193222-4.0193243-3.6449604-.0342197-1.2466698.0228586-2.5039139.1940947-3.7400093.079937-.5810642.6508608-.9931183 1.2675037-.9191551.6280003.0739632 1.0733376.6022167.9934006 1.1727066-.1484451 1.1304703-.2055244 2.2820263-.1713047 3.4230709.0583401 1.2134056.2141018 1.595335 1.73563 1.595335 0-.1457577-.0040646.6209812.0114288-3.5181847.0113602-.5810661.5137749-1.0565071 1.1418476-1.0565071h.0113602c.6280707 0 1.1418456.475441 1.1304874 1.0565071z" fill="#3a97d4"/></g></g><g><g><path d="m39.3935318 28.2835464c-.0092888 4.524292-.0126076 5.3895111 0 7.3004951.0113602.5810661-.4909859 1.0565071-1.1304893 1.0670815 0 0 0 0-.0113564 0-.616642 0-1.1304893-.4648666-1.1418495-1.0459976-.0114288-.570488-.0114288-1.1304665-.0114288-1.6903839-2.7084274 0-3.9221344-1.2193222-4.0193253-3.6449585-.0342178-1.2466698.0228615-2.5039139.1940956-3.7400093.079937-.5810642.6508598-.9931183 1.2675018-.9191551.6280022.0739632 1.0733414.6022167.9934044 1.1727066-.1484489 1.1304703-.2055244 2.2820263-.1713066 3.4230709.0623741 1.2973061.2792854 1.595335 1.73563 1.595335 0-.1457577-.0040665.6209831.0114288-3.5181847.0113602-.5810661.5137749-1.0565071 1.1418495-1.0565071h.0113564c.6280747 0 1.1418496.475441 1.1304894 1.0565071z" fill="#3a97d4"/></g></g><g><path d="m22.7584362 14.9242153h-14.0105448c-2.1391459 0-2.1386399-3.3853407 0-3.3853407h14.0105448c2.1391449 0 2.1386395 3.3853407 0 3.3853407z" fill="#fff"/></g><g><g><path d="m26.2832394 36.6435509c-1.0739861-.3347549-1.9894733-1.2710304-2.4485149-2.5035133-.7564583-2.0299187-.1916733-5.2063408.7006893-6.8496933 1.2650127-2.3331833 3.5497055-2.4244423 4.9749794-.2936153 2.6237544 3.9302329.9481086 10.9464435-3.2271538 9.6468219zm.7604503-9.4021435c-.4417191.0415745-.8106861.6391945-.9492645.894268v.0008659c-.6278458 1.1537571-1.1801224 3.8175259-.5976219 5.384222.2650337.7110825.7691135 1.2593346 1.3147678 1.4295273 2.1267223.66362 2.9960613-4.3138371 1.2238235-6.9683514-.2007579-.3005427-.6377773-.7700251-.9917049-.7405318z" fill="#3a97d4"/></g></g></g></g></svg>