<svg id="Layer_1" enable-background="new 0 0 68 68" height="512" viewBox="0 0 68 68" width="512" xmlns="http://www.w3.org/2000/svg"><g id="_x31_2"><g><g><g><path d="m2 61.2c.1.8.5 1.8 1 2.7.4.7 1.2 1.1 2 1.2 18.7.9 36.7.9 55.4 0 1.2-.1 2.1-1.1 2-2.3-.1-.8-.1-1.7-.2-2.5-19.6-1.6-40.7-2.5-60.2.9z" fill="#6760fc"/></g></g><g><g><path d="m19.7 18c8.2-.3 16.5-.2 24.7.1 3.1.1 8.8-.9 11.4 1 4.9 3.6 2.5 13.8 2.1 19-.3 4.5-.6 8.9-1 13.4-.1 1.4-1.2 2.6-2.5 2.6h-28.5c-3.8.2-7.6.3-11.4.3-2.2 0-5.5.6-6.8-2-1.4-2.4-1.4-6.4-1.7-9.1-.4-3.9-.4-7.8-.2-11.7.2-3.5.2-7.4 1.9-10.3 2.5-4.2 8-3.1 12-3.3z" fill="#31caff"/></g></g><g><g><path d="m50.1 48.8h-35.9c-2.1 0-3.8-1.7-3.8-3.8v-19.3c0-2.1 1.7-3.8 3.8-3.8h35.9c2.1 0 3.8 1.7 3.8 3.8v19.3c0 2.1-1.7 3.8-3.8 3.8z" fill="#dcf1ff"/></g></g><g><g><path d="m57 52.8 5.2 7.2c.7.9 0 2.2-1.1 2.2h-58c-1.1 0-1.7-1.3-1.1-2.2l5.6-7.7c.3-.4.7-.6 1.1-.6l47.3.5c.4 0 .8.2 1 .6z" fill="#14b5ff"/></g></g><g><g><path d="m30 20.8h-4c-.3 0-.5-.2-.5-.5s.2-.5.5-.5h4c.3 0 .5.2.5.5s-.2.5-.5.5z"/></g></g><g><g><path d="m33.5 20.6c-.2-.2-.2-.5 0-.7l.2-.2c.2-.2.5-.2.7 0s.2.5 0 .7l-.2.2c-.2.2-.5.2-.7 0z"/></g></g><g><g><path d="m7.8 51.8c-.3 0-.5-.2-.5-.5s.3-.5.5-.5c16.2.8 32.6 1.1 48.8.8.7 0 .7 1 0 1-16.2.3-32.6.1-48.8-.8z"/></g></g><g><g><path d="m5.4 44.3c-.8-6.1-.9-12.4 0-18.5.3-2.5.9-5.1 2.8-6.8 2.2-2 5.4-2.1 8.5-2l34.2 1.2c6.1.2 7.7 2.1 8 6.9.3 4.9 0 9.9-.7 14.8 0 .3-.3.5-.6.4-.3 0-.5-.3-.4-.6.7-4.8.9-9.7.7-14.6-.2-4.2-1.4-5.8-7-6l-34.3-1.1c-6.9-.2-9.3 1.2-10.2 7.9-.8 6.1-.8 12.2 0 18.3 0 .3-.2.5-.4.6-.3 0-.5-.2-.6-.5z"/></g></g><g><g><path d="m21.2 33.1-5.2-5.1c-.2-.2-.2-.5 0-.7s.5-.2.7 0l5.2 5.1c.2.2.2.5 0 .7s-.5.2-.7 0z"/></g></g><g><g><path d="m16.2 32.7c-.2-.2-.2-.5 0-.7 1.5-1.7 3.3-3.1 5.3-4.1.2-.1.5 0 .7.2.1.2 0 .5-.2.7-1.9.9-3.6 2.3-5 3.9-.3.2-.6.2-.8 0z"/></g></g><g><g><path d="m41.8 31.2-6.6-5c-.2-.2-.2-.5 0-.7s.5-.3.7-.1l6.6 5c.2.2.3.5.1.7s-.6.3-.8.1z"/></g></g><g><g><path d="m36.5 29.6c-.1-.3 0-.5.3-.7 2-.9 3.9-1.9 5.8-3 .2-.1.5-.1.7.2.1.2.1.5-.2.7-1.9 1.1-3.9 2.2-5.9 3-.3.2-.6.1-.7-.2z"/></g></g><g><g><path d="m35.2 42.7c-3.8-.5-7.8-.7-11.6-.6-.7 0-.7-1 0-1 3.9-.1 7.9.1 11.8.6.3 0 .5.3.4.6s-.3.5-.6.4z"/></g></g><g><g><path d="m21.8 62.9c-.3 0-.5-.3-.5-.5.1-1.3.7-2.5 1.6-3.5.1-.1.2-.2.4-.2 16.7-.1 16.1-.3 16.4.1l2.2 3c.2.2.1.5-.1.7s-.5.1-.7-.1l-2.1-2.8-15.5.1c-.7.8-1.1 1.7-1.2 2.7 0 .3-.2.5-.5.5z"/></g></g><g><g><path d="m35.4 55.5h-15.6c-.3 0-.5-.2-.5-.5s.2-.5.5-.5h15.6c.3 0 .5.2.5.5s-.2.5-.5.5z"/></g></g><g><g><path d="m20.7 58.9h-10.2c-.3 0-.5-.2-.5-.5s.2-.5.5-.5h10.2c.3 0 .5.2.5.5s-.2.5-.5.5z"/></g></g><g><g><path d="m49.8 56.5h-5.7c-.3 0-.5-.2-.5-.5s.2-.5.5-.5h5.7c.3 0 .5.2.5.5s-.2.5-.5.5z"/></g></g></g><g><g><path d="m49.8 16.1c-1.3-.2-1.8-2-1.2-3.2.5-1 1.5-1.6 2.3-2.2.4-.3 1.3-1.2 1.2-2.1-.2-1.1-1.8-1.8-2.1-3.2-.2-.9.3-2 1.2-2.1.7-.1.8.9.1 1-.3 0-.5.6-.4.9.3 1.1 1.9 1.7 2.1 3.2.2 1-.4 2.1-1.5 3-.8.6-1.6 1.1-2.1 1.9-.2.7-.1 1.7.6 1.9.6.1.4 1-.2.9z" fill="#31caff"/></g></g><g><g><path d="m57.6 17.7c-1.2-1.5-.7-4.1 1-5 .6-.3 1.2-.4 1.8-.5 2.4-.5 2.1-.9 2.3-2.6.2-2.4 1.4-4.5 2.6-6.4.2-.2.5-.3.7-.1.2.1.3.5.2.7-1.1 1.8-2.3 3.8-2.4 5.9 0 .7 0 1.5-.4 2.1-.9 1.5-3 1.2-4.2 1.9-1.2.6-1.5 2.4-.7 3.4.2.2.1.5-.1.7-.3.2-.6.1-.8-.1z" fill="#31caff"/></g></g><g><g><path d="m40.7 15c-.8-.2-2-.5-2.9-1.4-.8-.8-1.2-2.2-.5-3.3.5-.9 1.5-1.2 2-1.8.6-.6.7-1.7.3-2.7s-1.1-1.8-1.8-2.7c-.2-.2-.2-.5.1-.7.2-.2.5-.2.7.1.7.8 1.5 1.8 2 3 .3.9.4 2.5-.6 3.6-.6.6-1.6 1.1-1.9 1.7-.4.7-.1 1.6.4 2.1s1.3.9 2.4 1.2c.3.1.4.3.4.6-.1.2-.4.4-.6.3z" fill="#31caff"/></g></g></g></svg>