<svg id="Capa_1" enable-background="new 0 0 512 512" height="512" viewBox="0 0 512 512" width="512" xmlns="http://www.w3.org/2000/svg"><g><g><path d="m466 371.247c22.214-36.871 35-80.064 35-126.247s-12.786-89.376-35-126.247z" fill="#fead8a"/><g><path d="m406.908 52c-41.594-32.575-93.979-52-150.908-52-56.928 0-109.312 19.426-150.905 52z" fill="#fead8a"/></g><g fill="#fead8a"><path d="m46 118.753c-22.214 36.871-35 80.064-35 126.247s12.786 89.376 35 126.247z"/><path d="m98.156 432.362c42.636 35.956 97.704 57.638 157.844 57.638s115.208-21.682 157.844-57.638z"/></g></g><path d="m458.743 116.585h-404.835l-8.908 1v251.97c14.36 24.273 32.78 45.856 54.339 63.806h347.661c11.046 0 20-8.954 20-20v-295.776z" fill="#d4f2f6"/><g><g><g><path d="m98 117.585h-53v251.97c14.06 23.766 32.021 44.944 53 62.667z" fill="#a6e7f0"/></g></g><g fill="#fff"><path d="m382.531 168.5h35.969c1.657 0 3-1.343 3-3v-9c0-1.657-1.343-3-3-3h-51.474c6.116 3.916 11.397 9.022 15.505 15z"/><g><path d="m189 168.5h67c1.657 0 3-1.343 3-3v-9c0-1.657-1.343-3-3-3h-67c-1.657 0-3 1.343-3 3v9c0 1.657 1.343 3 3 3z"/><path d="m274 156.5v9c0 1.657 1.343 3 3 3h16.469c4.108-5.978 9.389-11.084 15.505-15h-31.974c-1.657 0-3 1.343-3 3z"/><path d="m168 153.5h-74.5c-1.657 0-3 1.343-3 3v9c0 1.657 1.343 3 3 3h74.5c1.657 0 3-1.343 3-3v-9c0-1.657-1.343-3-3-3z"/></g></g><g fill="#fff"><path d="m392 199c0 1.82-.093 3.619-.27 5.394h26.77c1.657 0 3-1.343 3-3v-9c0-1.657-1.343-3-3-3h-27.373c.563 3.12.873 6.326.873 9.606z"/><path d="m418.5 225.287h-33.354c-3.202 5.721-7.413 10.801-12.393 15h45.747c1.657 0 3-1.343 3-3v-9c0-1.657-1.343-3-3-3z"/><path d="m418.5 368.862h-60.378l15 15h45.378c1.657 0 3-1.343 3-3v-9c0-1.657-1.343-3-3-3z"/><g><path d="m375 332.968h-7.477c-1.663 5.164-3.669 10.175-6.003 15h13.48c1.657 0 3-1.343 3-3v-9c0-1.657-1.343-3-3-3z"/><path d="m393 335.968v9c0 1.657 1.343 3 3 3h22.5c1.657 0 3-1.343 3-3v-9c0-1.657-1.343-3-3-3h-22.5c-1.657 0-3 1.343-3 3z"/></g><path d="m418.5 261.181h-51.017c1.574 4.87 2.843 9.876 3.772 15h47.245c1.657 0 3-1.343 3-3v-9c0-1.657-1.343-3-3-3z"/><path d="m421.5 300.075c0-1.657-1.343-3-3-3h-45.365c0 .02.001.041.001.061 0 5.06-.323 10.046-.949 14.939h46.313c1.657 0 3-1.343 3-3z"/><g><path d="m141 192.394v9c0 1.657 1.343 3 3 3h40.536c7.79-6.017 16.353-11.077 25.516-15h-66.052c-1.657 0-3 1.343-3 3z"/><path d="m123 189.394h-29.5c-1.657 0-3 1.343-3 3v9c0 1.657 1.343 3 3 3h29.5c1.657 0 3-1.343 3-3v-9c0-1.657-1.343-3-3-3z"/></g><path d="m144.477 332.968h-50.977c-1.657 0-3 1.343-3 3v9c0 1.657 1.343 3 3 3h56.98c-2.334-4.825-4.34-9.836-6.003-15z"/><g><path d="m128 368.862h-34.5c-1.657 0-3 1.343-3 3v9c0 1.657 1.343 3 3 3h34.5c1.657 0 3-1.343 3-3v-9c0-1.657-1.343-3-3-3z"/><path d="m163.459 368.862h-14.459c-1.657 0-3 1.343-3 3v9c0 1.657 1.343 3 3 3h28.345c-5.05-4.585-9.696-9.607-13.886-15z"/></g><path d="m138.864 297.136c0-.02.001-.041.001-.061h-45.365c-1.657 0-3 1.343-3 3v9c0 1.657 1.343 3 3 3h46.313c-.626-4.893-.949-9.879-.949-14.939z"/><path d="m163.553 225.287h-70.053c-1.657 0-3 1.343-3 3v9c0 1.657 1.343 3 3 3h60.116c2.933-5.261 6.257-10.275 9.937-15z"/><path d="m144.517 261.181h-51.017c-1.657 0-3 1.343-3 3v9c0 1.657 1.343 3 3 3h47.245c.929-5.124 2.198-10.13 3.772-15z"/></g><g><path d="m467 117.585h-422v-46.585c0-11.046 8.954-20 20-20h382c11.046 0 20 8.954 20 20z" fill="#0681af"/></g><g><path d="m118 51h-53c-11.046 0-20 8.954-20 20v46.585h53v-46.585c0-11.046 8.954-20 20-20z" fill="#017297"/></g><g><g><g><path d="m409 91.792h-193c-1.657 0-3-1.343-3-3v-9c0-1.657 1.343-3 3-3h193c1.657 0 3 1.343 3 3v9c0 1.657-1.343 3-3 3z" fill="#fff"/></g></g><g><g><circle cx="81.5" cy="84.293" fill="#fd6930" r="7.5"/></g><g><circle cx="107.5" cy="84.293" fill="#ffe177" r="7.5"/></g><g><circle cx="133.5" cy="84.293" fill="#00f2a6" r="7.5"/></g><g><circle cx="430.5" cy="84.293" fill="#fff" r="7.5"/></g></g></g></g><g><g><path d="m384.476 393.801-31.312-31.312c-8.297 12.295-18.867 22.934-31.097 31.319l31.201 31.201z" fill="#025f80"/><g><path d="m366.827 410.035-28.342-28.342c-4.838 4.72-10.078 9.028-15.666 12.868l29.74 29.74z" fill="#024c67"/></g><g><path d="m466.953 487.148-20.339 20.339c-6.018 6.018-15.774 6.018-21.792 0l-74.188-74.188c-1.953-1.953-1.953-5.118 0-7.071l35.059-35.059c1.953-1.953 5.118-1.953 7.071 0l74.188 74.188c6.019 6.017 6.019 15.773.001 21.791z" fill="#3692bc"/></g><g><path d="m384.464 433.299c-1.953-1.953-1.953-5.118 0-7.071l21.68-21.68-13.379-13.379c-1.953-1.953-5.118-1.953-7.071 0l-35.059 35.059c-1.953 1.953-1.953 5.119 0 7.071l74.188 74.188c6.018 6.018 15.774 6.018 21.792 0l6.019-6.019z" fill="#0681af"/></g></g><path d="m338 253c-29.775 0-54-24.224-54-54 0-5.581.851-10.967 2.43-16.035-9.709-2.582-19.908-3.965-30.43-3.965-65.244 0-118.135 52.891-118.135 118.135 0 65.245 52.891 118.136 118.135 118.136s118.135-52.891 118.135-118.136c0-17.975-4.021-35.008-11.203-50.26-7.464 3.904-15.941 6.125-24.932 6.125z" fill="#3692bc"/><path d="m217.454 374.335c-28.301-14.159-47.744-43.401-47.744-77.2s19.443-63.04 47.744-77.199c16.369-18.938 38.65-32.625 63.978-38.182-8.192-1.798-16.7-2.754-25.432-2.754-65.244 0-118.135 52.891-118.135 118.135 0 65.245 52.891 118.136 118.135 118.136 8.732 0 17.24-.956 25.432-2.754-25.328-5.557-47.609-19.244-63.978-38.182z" fill="#0681af"/><path d="m286.957 216.589c-9.612-3.697-20.043-5.744-30.957-5.744-47.657 0-86.29 38.634-86.29 86.29 0 47.657 38.633 86.29 86.29 86.29s86.29-38.633 86.29-86.29c0-16.388-4.569-31.709-12.501-44.759-19.985-3.061-36.383-17.124-42.832-35.787z" fill="#fff"/><g><path d="m203.419 297.135c0-41.887 29.85-76.793 69.435-84.633-5.452-1.08-11.086-1.657-16.855-1.657-47.657 0-86.29 38.634-86.29 86.29 0 47.657 38.633 86.29 86.29 86.29 5.769 0 11.403-.578 16.855-1.657-39.585-7.84-69.435-42.745-69.435-84.633z" fill="#eaf9fa"/></g><path d="m338 253c-6.831 0-13.362-1.288-19.383-3.612 10.135 13.259 16.173 29.808 16.173 47.748 0 43.445-35.345 78.79-78.79 78.79s-78.79-35.345-78.79-78.79 35.345-78.791 78.79-78.791c12.906 0 25.085 3.139 35.847 8.663-3.512-5.766-5.963-12.242-7.109-19.153-9.061-2.924-18.717-4.51-28.738-4.51-51.716 0-93.79 42.074-93.79 93.791 0 51.716 42.074 93.79 93.79 93.79s93.79-42.074 93.79-93.79c0-15.954-4.009-30.988-11.064-44.154-.243.003-.483.018-.726.018z" fill="#025f80"/><g><path d="m281.536 297.135 21.529-21.529c3.905-3.905 3.905-10.237 0-14.142l-11.393-11.394c-3.905-3.905-10.237-3.905-14.142 0l-21.53 21.53-21.529-21.529c-3.905-3.905-10.237-3.905-14.142 0l-11.393 11.394c-3.905 3.905-3.905 10.237 0 14.142l21.529 21.529-21.529 21.529c-3.905 3.905-3.905 10.237 0 14.142l11.393 11.393c3.905 3.905 10.237 3.905 14.142 0l21.529-21.529 21.529 21.529c3.905 3.905 10.237 3.905 14.142 0l11.393-11.393c3.905-3.905 3.905-10.237 0-14.142z" fill="#fd6930"/></g><g><g><path d="m225.929 332.807c-3.905-3.905-3.905-10.237 0-14.142l17.993-17.993c1.953-1.953 1.953-5.118 0-7.071l-17.993-17.993c-3.905-3.905-3.905-10.237 0-14.142l9.968-9.968-1.426-1.426c-3.905-3.905-10.237-3.905-14.142 0l-11.393 11.394c-3.905 3.905-3.905 10.237 0 14.142l21.529 21.529-21.529 21.529c-3.905 3.905-3.905 10.237 0 14.142l11.394 11.394c3.905 3.905 10.237 3.905 14.142 0l1.426-1.426z" fill="#fd5426"/></g></g></g><g><circle cx="338" cy="199" fill="#fd6930" r="55"/></g><g><path d="m315 199c0-24.809 16.43-45.775 39-52.628-5.064-1.538-10.434-2.372-16-2.372-30.376 0-55 24.624-55 55s24.624 55 55 55c5.566 0 10.936-.834 16-2.372-22.57-6.853-39-27.819-39-52.628z" fill="#fd5426"/></g><g><g><circle cx="312.5" cy="199" fill="#fff" r="7.5"/></g><g><circle cx="338" cy="199" fill="#fff" r="7.5"/></g><g><circle cx="363.5" cy="199" fill="#fff" r="7.5"/></g></g></g></svg>